<svg width="64" height="64" viewBox="0 0 64 64" fill="none" xmlns="http://www.w3.org/2000/svg">
<g id="office-svgrepo-com (1) 1">
<g id="Group">
<g id="Group_2">
<path id="Vector" d="M21.7696 4.99963H14.476C13.7719 4.99963 13.2011 5.57038 13.2011 6.27451V13.5681C13.2011 14.2723 13.7719 14.843 14.476 14.843H21.7696C22.4737 14.843 23.0445 14.2723 23.0445 13.5681V6.27451C23.0445 5.57038 22.4737 4.99963 21.7696 4.99963ZM20.4946 12.2933H15.7509V7.54951H20.4946V12.2933Z" fill="#3182CE"/>
</g>
</g>
<g id="Group_3">
<g id="Group_4">
<path id="Vector_2" d="M34.8273 4.99963H27.5337C26.8296 4.99963 26.2589 5.57038 26.2589 6.27451V13.5681C26.2589 14.2723 26.8296 14.843 27.5337 14.843H34.8273C35.5315 14.843 36.1022 14.2723 36.1022 13.5681V6.27451C36.1022 5.57038 35.5315 4.99963 34.8273 4.99963ZM33.5525 12.2933H28.8087V7.54951H33.5525V12.2933Z" fill="#3182CE"/>
</g>
</g>
<g id="Group_5">
<g id="Group_6">
<path id="Vector_3" d="M21.7696 17.9398H14.476C13.7719 17.9398 13.2011 18.5105 13.2011 19.2146V26.5083C13.2011 27.2124 13.7719 27.7831 14.476 27.7831H21.7696C22.4737 27.7831 23.0445 27.2124 23.0445 26.5083V19.2146C23.0445 18.5105 22.4737 17.9398 21.7696 17.9398ZM20.4946 25.2334H15.7509V20.4896H20.4946V25.2334Z" fill="#3182CE"/>
</g>
</g>
<g id="Group_7">
<g id="Group_8">
<path id="Vector_4" d="M34.8273 17.9398H27.5337C26.8296 17.9398 26.2589 18.5105 26.2589 19.2146V26.5083C26.2589 27.2124 26.8296 27.7831 27.5337 27.7831H34.8273C35.5315 27.7831 36.1022 27.2124 36.1022 26.5083V19.2146C36.1022 18.5105 35.5315 17.9398 34.8273 17.9398ZM33.5525 25.2334H28.8087V20.4896H33.5525V25.2334Z" fill="#3182CE"/>
</g>
</g>
<g id="Group_9">
<g id="Group_10">
<path id="Vector_5" d="M21.7695 30.8801H14.4759C13.7717 30.8801 13.201 31.4509 13.201 32.155V39.4485C13.201 40.1526 13.7717 40.7234 14.4759 40.7234H21.7695C22.4736 40.7234 23.0444 40.1526 23.0444 39.4485V32.155C23.0444 31.4509 22.4736 30.8801 21.7695 30.8801ZM20.4946 38.1735H15.7509V33.4299H20.4946V38.1735Z" fill="#3182CE"/>
</g>
</g>
<g id="Group_11">
<g id="Group_12">
<path id="Vector_6" d="M34.8273 30.8801H27.5337C26.8296 30.8801 26.2589 31.4509 26.2589 32.155V39.4485C26.2589 40.1526 26.8296 40.7234 27.5337 40.7234H34.8273C35.5315 40.7234 36.1022 40.1526 36.1022 39.4485V32.155C36.1022 31.4509 35.5315 30.8801 34.8273 30.8801ZM33.5525 38.1735H28.8087V33.4299H33.5525V38.1735Z" fill="#3182CE"/>
</g>
</g>
<g id="Group_13">
<g id="Group_14">
<path id="Vector_7" d="M24.6516 48.1727C23.9475 48.1727 23.3768 48.7435 23.3768 49.4476V49.5652C23.3768 50.2694 23.9475 50.8401 24.6516 50.8401C25.3558 50.8401 25.9265 50.2694 25.9265 49.5652V49.4476C25.9265 48.7436 25.3558 48.1727 24.6516 48.1727Z" fill="#3182CE"/>
</g>
</g>
<g id="Group_15">
<g id="Group_16">
<path id="Vector_8" d="M55.6016 61.8236L49.1983 55.4201C50.1825 54.0137 50.7621 52.3046 50.7621 50.4616C50.7621 45.6805 46.8724 41.7907 42.0913 41.7907C41.817 41.7907 41.5462 41.805 41.2783 41.8301V1.27488C41.2784 0.57075 40.7077 0 40.0035 0H9.2999C8.59578 0 8.02502 0.57075 8.02502 1.27488V57.8589C8.02502 58.563 8.59578 59.1338 9.2999 59.1338H42.3267C42.3813 59.1338 42.4347 59.1291 42.4875 59.1225C44.3542 59.0381 46.0675 58.36 47.4462 57.2739L53.7987 63.6265C54.0477 63.8755 54.3739 63.9999 54.7001 63.9999C55.0264 63.9999 55.3528 63.8754 55.6016 63.6265C56.0995 63.1287 56.0995 62.3215 55.6016 61.8236ZM29.3763 56.584H25.9265V53.0945C25.9265 52.3904 25.3558 51.8196 24.6516 51.8196C23.9475 51.8196 23.3768 52.3904 23.3768 53.0945V56.584H19.927V46.9582H29.3763V56.584ZM31.9261 56.5839V45.6833C31.9261 44.9791 31.3554 44.4084 30.6513 44.4084H18.6521C17.948 44.4084 17.3773 44.9791 17.3773 45.6833V56.5839H10.5748V2.54975H38.7285V42.4699C35.6128 43.7859 33.4206 46.8725 33.4206 50.4618C33.4206 52.8493 34.3908 55.0144 35.9573 56.584H31.9261V56.5839ZM42.0914 56.5827C38.7163 56.5827 35.9704 53.8369 35.9704 50.4618C35.9704 47.0866 38.7163 44.3408 42.0914 44.3408C45.4665 44.3408 48.2124 47.0866 48.2124 50.4618C48.2124 53.8369 45.4665 56.5827 42.0914 56.5827Z" fill="#3182CE"/>
</g>
</g>
</g>
</svg>
